<svg version="1.1" id="Layer_1" xmlns="http://www.w3.org/2000/svg" xmlns:xlink="http://www.w3.org/1999/xlink" x="0px" y="0px"
	 width="100%" viewBox="0 0 396 490" enable-background="new 0 0 396 490" xml:space="preserve">
<path fill="#242020" opacity="1.000000" stroke="none" 
	d="
M1.000000,179.000000 
	C1.000000,119.333351 1.000000,60.166702 1.000000,1.000040 
	C132.999939,1.000026 264.999878,1.000026 396.999878,1.000013 
	C396.999908,164.333237 396.999908,327.666473 396.999939,490.999756 
	C265.000153,490.999847 133.000290,490.999847 1.000218,490.999939 
	C1.000000,387.166656 1.000000,283.333344 1.000000,179.000000 
M300.819214,57.904354 
	C303.187439,54.162464 304.285065,49.276009 310.291809,47.443184 
	C310.291809,55.861755 310.291809,63.556068 310.291809,71.221077 
	C316.281189,70.526657 324.870972,82.523140 323.487976,89.643074 
	C328.977020,94.454506 334.552032,98.975136 339.612854,104.012413 
	C341.032532,105.425514 342.176270,109.230255 341.322906,110.440666 
	C337.924438,115.261009 334.224182,120.236305 329.528137,123.614807 
	C327.270874,125.238770 322.477936,123.779472 318.962402,123.073387 
	C316.156403,122.509811 313.545990,120.972488 310.763672,119.832520 
	C310.904419,121.267754 310.734741,123.031830 311.281982,124.534866 
	C314.207062,132.568680 314.879852,140.082336 307.342499,146.202515 
	C306.749908,146.683716 306.294342,147.614273 306.203949,148.386230 
	C305.735016,152.390320 305.405334,156.410721 304.993622,160.781479 
	C304.019073,160.890869 302.547577,161.056046 300.931824,161.237411 
	C305.317993,169.711456 305.402771,169.833130 301.060181,178.274078 
	C298.932922,182.409012 296.697876,186.540894 294.027069,190.332870 
	C288.439575,198.265961 281.401062,204.909454 271.812378,207.159912 
	C266.501526,208.406342 265.233276,211.212692 264.959869,215.597641 
	C263.614380,237.178635 262.301666,258.761719 260.996368,280.345184 
	C260.721985,284.882324 262.128235,287.690735 267.469360,287.271912 
	C269.561615,287.107880 271.742249,288.070862 274.615112,288.674438 
	C272.992981,284.559692 272.008453,280.798859 270.133087,277.552673 
	C265.343170,269.261536 265.425842,260.332031 266.270813,251.353821 
	C266.924957,244.403793 268.777374,237.547195 269.168701,230.596771 
	C269.643799,222.158783 275.373169,218.708893 282.229004,214.626648 
	C280.938812,238.897644 284.543732,261.936707 289.131195,285.916229 
	C295.662994,283.704834 301.400055,281.325867 307.368195,279.946564 
	C309.928284,279.354889 313.060486,280.559143 315.771606,281.442200 
	C321.381012,283.269318 326.739502,286.231354 332.463928,287.249542 
	C339.847687,288.562927 346.326385,291.334442 352.731659,295.020538 
	C363.420410,301.171661 373.358551,308.150604 381.489685,318.208557 
	C381.489685,217.623428 381.489685,117.613258 381.489685,17.455551 
	C259.574585,17.455551 138.004211,17.455551 16.362036,17.455551 
	C16.362036,125.400810 16.362036,233.055893 16.362036,341.369385 
	C25.662310,338.541748 34.432232,335.799561 43.257477,333.248779 
	C45.300030,332.658447 47.552273,332.400574 49.672932,332.536621 
	C64.652435,333.497650 78.514061,329.372955 92.122017,323.606964 
	C94.568031,310.399872 96.999100,297.273468 99.430176,284.147064 
	C99.719261,284.144379 100.008354,284.141724 100.297440,284.139069 
	C100.297440,296.728241 100.297440,309.317444 100.297440,321.771912 
	C106.484238,321.879211 108.064949,318.527527 107.496277,313.423737 
	C107.367653,312.269409 107.519638,311.066833 107.274361,309.945129 
	C104.579353,297.620087 102.083061,285.242584 98.974174,273.021423 
	C97.722122,268.099548 98.454086,264.891205 102.008804,261.013672 
	C106.268593,256.367035 109.611244,250.662445 112.379272,244.945480 
	C114.086273,241.419907 114.025185,236.631226 110.474060,233.841766 
	C104.192841,228.907684 101.578766,222.572113 101.746201,213.772476 
	C97.870728,219.080627 98.120094,223.806534 99.516777,228.704437 
	C99.914009,230.097473 100.917366,231.801987 100.469727,232.873657 
	C97.382408,240.264587 94.480652,248.557526 86.368187,251.385513 
	C78.185181,254.238098 69.361610,255.710327 60.698074,256.565613 
	C54.979301,257.130188 49.658623,254.582382 47.141766,248.073059 
	C54.073139,243.320374 60.869629,238.586563 67.741653,233.965073 
	C78.566208,226.685440 86.498795,217.157654 91.091736,204.856369 
	C93.300781,198.939865 96.321671,193.299240 98.197876,187.291031 
	C102.994392,171.931168 114.124268,163.595383 128.700668,159.109650 
	C137.591797,156.373489 146.712738,154.393616 155.670853,151.863068 
	C166.813904,148.715332 178.719147,148.215469 188.938889,141.824249 
	C200.647842,134.501694 212.505585,127.413345 224.401917,120.398308 
	C226.097015,119.398743 228.373322,119.384819 230.682007,118.844131 
	C229.242584,113.274353 231.035660,108.884346 237.526703,106.843735 
	C239.187531,106.321609 240.758270,105.016846 241.992966,103.713951 
	C251.475082,93.708199 261.418671,84.065445 270.098114,73.397972 
	C276.494202,65.536850 283.838226,62.213623 293.507263,63.508110 
	C298.007874,64.110641 300.027588,62.291164 300.246338,58.077324 
	C300.246338,58.077324 300.167542,58.134468 300.819214,57.904354 
M381.835297,414.500031 
	C381.835297,397.076355 381.835297,379.652649 381.835297,362.296021 
	C259.501312,362.296021 137.918686,362.296021 16.262455,362.296021 
	C16.262455,400.175171 16.262455,437.756561 16.262455,475.400909 
	C138.210251,475.400909 259.893860,475.400909 381.484344,475.400909 
	C381.651917,474.643158 381.786011,474.319061 381.786407,473.994843 
	C381.809662,454.496582 381.821960,434.998322 381.835297,414.500031 
M240.188187,267.261627 
	C237.137848,253.332535 234.087524,239.403442 230.945801,225.057022 
	C228.937225,225.057022 226.485672,225.051804 224.034134,225.057953 
	C213.222931,225.085007 202.381805,225.609695 191.611877,224.957336 
	C185.244858,224.571686 179.047134,221.922180 172.669891,221.028488 
	C165.987137,220.091995 161.241486,223.079514 159.227585,229.468964 
	C155.979156,239.775085 149.552536,247.458984 141.164017,253.907867 
	C135.497040,258.264526 129.946396,262.809326 124.699448,267.655121 
	C122.913017,269.304993 121.193275,272.130005 121.192551,274.418610 
	C121.189476,284.057343 121.797073,293.698944 122.293724,303.333679 
	C122.447304,306.313080 123.894730,307.687164 127.221321,308.308167 
	C131.710892,309.146301 135.896820,311.495361 140.331268,312.791718 
	C142.650055,313.469543 145.412796,313.978424 147.645462,313.364685 
	C156.755402,310.860413 165.595520,306.899292 175.334961,308.073517 
	C180.229904,308.663696 185.002563,310.654449 189.885132,310.892792 
	C208.664185,311.809540 226.397476,306.831726 243.854263,300.535248 
	C246.644257,299.528900 247.273117,298.055847 246.606461,295.273376 
	C244.438705,286.225708 242.469025,277.130585 240.188187,267.261627 
z"/>
<path fill="#FBCD01" opacity="1.000000" stroke="none" 
	d="
M300.307098,58.001228 
	C300.027588,62.291164 298.007874,64.110641 293.507263,63.508110 
	C283.838226,62.213623 276.494202,65.536850 270.098114,73.397972 
	C261.418671,84.065445 251.475082,93.708199 241.992966,103.713951 
	C240.758270,105.016846 239.187531,106.321609 237.526703,106.843735 
	C231.035660,108.884346 229.242584,113.274353 230.682007,118.844131 
	C228.373322,119.384819 226.097015,119.398743 224.401917,120.398308 
	C212.505585,127.413345 200.647842,134.501694 188.938889,141.824249 
	C178.719147,148.215469 166.813904,148.715332 155.670853,151.863068 
	C146.712738,154.393616 137.591797,156.373489 128.700668,159.109650 
	C114.124268,163.595383 102.994392,171.931168 98.197876,187.291031 
	C96.321671,193.299240 93.300781,198.939865 91.091736,204.856369 
	C86.498795,217.157654 78.566208,226.685440 67.741653,233.965073 
	C60.869629,238.586563 54.073139,243.320374 47.141766,248.073059 
	C49.658623,254.582382 54.979301,257.130188 60.698074,256.565613 
	C69.361610,255.710327 78.185181,254.238098 86.368187,251.385513 
	C94.480652,248.557526 97.382408,240.264587 100.469727,232.873657 
	C100.917366,231.801987 99.914009,230.097473 99.516777,228.704437 
	C98.120094,223.806534 97.870728,219.080627 101.746201,213.772476 
	C101.578766,222.572113 104.192841,228.907684 110.474060,233.841766 
	C114.025185,236.631226 114.086273,241.419907 112.379272,244.945480 
	C109.611244,250.662445 106.268593,256.367035 102.008804,261.013672 
	C98.454086,264.891205 97.722122,268.099548 98.974174,273.021423 
	C102.083061,285.242584 104.579353,297.620087 107.274361,309.945129 
	C107.519638,311.066833 107.367653,312.269409 107.496277,313.423737 
	C108.064949,318.527527 106.484238,321.879211 100.297440,321.771912 
	C100.297440,309.317444 100.297440,296.728241 100.297440,284.139069 
	C100.008354,284.141724 99.719261,284.144379 99.430176,284.147064 
	C96.999100,297.273468 94.568031,310.399872 92.122017,323.606964 
	C78.514061,329.372955 64.652435,333.497650 49.672932,332.536621 
	C47.552273,332.400574 45.300030,332.658447 43.257477,333.248779 
	C34.432232,335.799561 25.662310,338.541748 16.362036,341.369385 
	C16.362036,233.055893 16.362036,125.400810 16.362036,17.455551 
	C138.004211,17.455551 259.574585,17.455551 381.489685,17.455551 
	C381.489685,117.613258 381.489685,217.623428 381.489685,318.208557 
	C373.358551,308.150604 363.420410,301.171661 352.731659,295.020538 
	C346.326385,291.334442 339.847687,288.562927 332.463928,287.249542 
	C326.739502,286.231354 321.381012,283.269318 315.771606,281.442200 
	C313.060486,280.559143 309.928284,279.354889 307.368195,279.946564 
	C301.400055,281.325867 295.662994,283.704834 289.131195,285.916229 
	C284.543732,261.936707 280.938812,238.897644 282.229004,214.626648 
	C275.373169,218.708893 269.643799,222.158783 269.168701,230.596771 
	C268.777374,237.547195 266.924957,244.403793 266.270813,251.353821 
	C265.425842,260.332031 265.343170,269.261536 270.133087,277.552673 
	C272.008453,280.798859 272.992981,284.559692 274.615112,288.674438 
	C271.742249,288.070862 269.561615,287.107880 267.469360,287.271912 
	C262.128235,287.690735 260.721985,284.882324 260.996368,280.345184 
	C262.301666,258.761719 263.614380,237.178635 264.959869,215.597641 
	C265.233276,211.212692 266.501526,208.406342 271.812378,207.159912 
	C281.401062,204.909454 288.439575,198.265961 294.027069,190.332870 
	C296.697876,186.540894 298.932922,182.409012 301.060181,178.274078 
	C305.402771,169.833130 305.317993,169.711456 300.931824,161.237411 
	C302.547577,161.056046 304.019073,160.890869 304.993622,160.781479 
	C305.405334,156.410721 305.735016,152.390320 306.203949,148.386230 
	C306.294342,147.614273 306.749908,146.683716 307.342499,146.202515 
	C314.879852,140.082336 314.207062,132.568680 311.281982,124.534866 
	C310.734741,123.031830 310.904419,121.267754 310.763672,119.832520 
	C313.545990,120.972488 316.156403,122.509811 318.962402,123.073387 
	C322.477936,123.779472 327.270874,125.238770 329.528137,123.614807 
	C334.224182,120.236305 337.924438,115.261009 341.322906,110.440666 
	C342.176270,109.230255 341.032532,105.425514 339.612854,104.012413 
	C334.552032,98.975136 328.977020,94.454506 323.487976,89.643074 
	C324.870972,82.523140 316.281189,70.526657 310.291809,71.221077 
	C310.291809,63.556068 310.291809,55.861755 310.291809,47.443184 
	C304.285065,49.276009 303.187439,54.162464 300.287994,57.684124 
	C299.062958,55.597172 298.369141,53.730446 297.227753,50.659454 
	C294.604858,54.740822 292.778931,57.582096 290.952972,60.423370 
	C291.328552,60.941551 291.704163,61.459732 292.079742,61.977913 
	C294.822205,60.652351 297.564636,59.326790 300.307098,58.001228 
z"/>
<path fill="#FBCD01" opacity="1.000000" stroke="none" 
	d="
M381.835266,415.000061 
	C381.821960,434.998322 381.809662,454.496582 381.786407,473.994843 
	C381.786011,474.319061 381.651917,474.643158 381.484344,475.400909 
	C259.893860,475.400909 138.210251,475.400909 16.262455,475.400909 
	C16.262455,437.756561 16.262455,400.175171 16.262455,362.296021 
	C137.918686,362.296021 259.501312,362.296021 381.835297,362.296021 
	C381.835297,379.652649 381.835297,397.076355 381.835266,415.000061 
M249.216507,446.004944 
	C253.416077,445.497223 257.408356,444.310944 257.973419,439.417053 
	C258.842041,431.893921 261.079071,423.868469 253.089874,418.391174 
	C259.138062,414.716187 257.017944,408.691193 257.096527,403.479401 
	C257.204712,396.307526 254.518494,393.515442 247.286621,393.059265 
	C241.661041,392.704407 235.995193,392.728699 230.357498,392.907684 
	C225.847122,393.050934 221.088974,393.353882 219.180573,398.599884 
	C216.502808,405.960724 218.238434,415.067200 223.042130,418.846375 
	C218.439209,420.436188 217.203964,424.048798 217.157394,428.337097 
	C217.130264,430.834442 217.052841,433.337341 217.175812,435.828979 
	C217.514130,442.683624 220.127380,445.643860 226.927811,445.954926 
	C234.054306,446.280914 241.206802,446.038147 249.216507,446.004944 
M131.013550,410.990753 
	C132.182571,413.664490 133.351593,416.338257 134.595551,419.183411 
	C130.710724,420.549194 129.757172,424.602539 129.823547,429.210938 
	C129.857117,431.540405 129.785767,433.874756 129.910172,436.198914 
	C130.259781,442.730560 132.517120,445.557678 138.879395,445.887604 
	C146.664108,446.291260 154.499603,446.229767 162.283966,445.818115 
	C164.669327,445.691956 167.640656,444.331512 169.164627,442.535797 
	C173.769424,437.109711 171.159882,422.551758 165.421936,418.589233 
	C171.968353,414.381104 169.969971,407.770630 169.724411,401.909485 
	C169.490952,396.337524 166.841721,393.761749 161.289185,393.192993 
	C156.684464,392.721313 152.000961,392.648499 147.372055,392.850403 
	C131.740112,393.532104 130.982101,394.413666 131.013550,410.990753 
M331.125641,401.192505 
	C335.912537,400.551270 333.798798,405.178253 335.416626,406.933960 
	C337.918762,406.933960 340.345154,406.933960 342.849609,406.933960 
	C342.849609,402.283325 342.849609,397.897827 342.849609,393.500793 
	C330.626587,393.500793 318.748169,393.500793 306.462067,393.500793 
	C306.462067,403.433685 306.462067,413.007690 306.462067,422.047577 
	C313.766602,422.047577 320.930969,421.731201 328.035492,422.243805 
	C330.118713,422.394104 333.475647,424.686096 333.723114,426.368134 
	C334.239777,429.879791 334.109314,436.081329 332.391907,436.809814 
	C328.279694,438.554138 323.011810,438.362793 318.387207,437.706665 
	C316.633728,437.457886 315.365570,433.788361 313.673401,431.390686 
	C311.407471,431.390686 308.322906,431.390686 305.307404,431.390686 
	C303.973663,441.124237 306.313507,445.350525 313.949097,445.868042 
	C321.227875,446.361420 328.576355,446.204193 335.875214,445.890533 
	C340.747253,445.681213 344.020844,442.946014 344.356018,437.775055 
	C344.635071,433.470062 344.962494,429.106323 344.568787,424.833069 
	C343.850830,417.039917 341.382385,414.702332 333.463196,414.226776 
	C327.753662,413.883911 322.006958,414.159973 316.387329,414.159973 
	C316.387329,409.905762 316.387329,405.673584 316.387329,401.191345 
	C321.235382,401.191345 325.716095,401.191345 331.125641,401.192505 
M86.848618,442.439087 
	C87.275719,439.393860 86.417244,437.725128 82.878609,438.085297 
	C80.660652,438.311035 78.380188,437.922638 75.809845,437.793884 
	C75.809845,422.667480 75.809845,408.070984 75.809845,392.784393 
	C67.909103,393.960754 60.464893,395.069153 52.690990,396.226624 
	C53.253830,399.138580 53.706627,401.481201 54.110752,403.571991 
	C58.402157,403.228455 61.947990,402.944611 65.573555,402.654358 
	C65.573555,414.669830 65.573555,426.096893 65.573555,437.767090 
	C61.624447,437.989655 57.896927,438.199738 54.346138,438.399872 
	C54.346138,441.099518 54.346138,443.341553 54.346138,445.849518 
	C63.837502,445.849518 72.975288,445.849579 82.113068,445.849335 
	C82.779152,445.849304 83.611649,446.099945 84.077271,445.793762 
	C85.098045,445.122467 85.932968,444.168518 86.848618,442.439087 
z"/>
<path fill="#FBCD01" opacity="1.000000" stroke="none" 
	d="
M240.305634,267.657654 
	C242.469025,277.130585 244.438705,286.225708 246.606461,295.273376 
	C247.273117,298.055847 246.644257,299.528900 243.854263,300.535248 
	C226.397476,306.831726 208.664185,311.809540 189.885132,310.892792 
	C185.002563,310.654449 180.229904,308.663696 175.334961,308.073517 
	C165.595520,306.899292 156.755402,310.860413 147.645462,313.364685 
	C145.412796,313.978424 142.650055,313.469543 140.331268,312.791718 
	C135.896820,311.495361 131.710892,309.146301 127.221321,308.308167 
	C123.894730,307.687164 122.447304,306.313080 122.293724,303.333679 
	C121.797073,293.698944 121.189476,284.057343 121.192551,274.418610 
	C121.193275,272.130005 122.913017,269.304993 124.699448,267.655121 
	C129.946396,262.809326 135.497040,258.264526 141.164017,253.907867 
	C149.552536,247.458984 155.979156,239.775085 159.227585,229.468964 
	C161.241486,223.079514 165.987137,220.091995 172.669891,221.028488 
	C179.047134,221.922180 185.244858,224.571686 191.611877,224.957336 
	C202.381805,225.609695 213.222931,225.085007 224.034134,225.057953 
	C226.485672,225.051804 228.937225,225.057022 230.945801,225.057022 
	C234.087524,239.403442 237.137848,253.332535 240.305634,267.657654 
z"/>
<path fill="#110E00" opacity="1.000000" stroke="none" 
	d="
M300.276733,58.039276 
	C297.564636,59.326790 294.822205,60.652351 292.079742,61.977913 
	C291.704163,61.459732 291.328552,60.941551 290.952972,60.423370 
	C292.778931,57.582096 294.604858,54.740822 297.227753,50.659454 
	C298.369141,53.730446 299.062958,55.597172 299.962158,57.799179 
	C300.167542,58.134468 300.246338,58.077324 300.276733,58.039276 
z"/>
<path fill="#070600" opacity="1.000000" stroke="none" 
	d="
M248.782227,446.024475 
	C241.206802,446.038147 234.054306,446.280914 226.927811,445.954926 
	C220.127380,445.643860 217.514130,442.683624 217.175812,435.828979 
	C217.052841,433.337341 217.130264,430.834442 217.157394,428.337097 
	C217.203964,424.048798 218.439209,420.436188 223.042130,418.846375 
	C218.238434,415.067200 216.502808,405.960724 219.180573,398.599884 
	C221.088974,393.353882 225.847122,393.050934 230.357498,392.907684 
	C235.995193,392.728699 241.661041,392.704407 247.286621,393.059265 
	C254.518494,393.515442 257.204712,396.307526 257.096527,403.479401 
	C257.017944,408.691193 259.138062,414.716187 253.089874,418.391174 
	C261.079071,423.868469 258.842041,431.893921 257.973419,439.417053 
	C257.408356,444.310944 253.416077,445.497223 248.782227,446.024475 
M248.151627,428.766144 
	C248.131973,424.499237 245.679413,422.921967 241.747665,422.936523 
	C239.420670,422.945160 237.089050,422.797241 234.767258,422.898071 
	C228.949875,423.150818 227.761642,424.359589 227.504150,430.005768 
	C227.196640,436.749237 228.604675,438.288483 235.317200,438.500763 
	C236.646500,438.542786 237.978287,438.518372 239.308792,438.508179 
	C247.273605,438.447266 248.081100,437.637238 248.151627,428.766144 
M236.713501,400.491699 
	C234.179016,401.559296 230.134827,402.053833 229.461426,403.827850 
	C228.433456,406.536041 228.934097,412.488953 230.192856,412.915924 
	C234.478317,414.369568 239.466751,414.698151 244.019485,414.125671 
	C247.866821,413.641846 247.008575,409.530243 246.969513,406.646271 
	C246.897552,401.334473 245.690994,400.603241 236.713501,400.491699 
z"/>
<path fill="#050400" opacity="1.000000" stroke="none" 
	d="
M131.004028,410.550079 
	C130.982101,394.413666 131.740112,393.532104 147.372055,392.850403 
	C152.000961,392.648499 156.684464,392.721313 161.289185,393.192993 
	C166.841721,393.761749 169.490952,396.337524 169.724411,401.909485 
	C169.969971,407.770630 171.968353,414.381104 165.421936,418.589233 
	C171.159882,422.551758 173.769424,437.109711 169.164627,442.535797 
	C167.640656,444.331512 164.669327,445.691956 162.283966,445.818115 
	C154.499603,446.229767 146.664108,446.291260 138.879395,445.887604 
	C132.517120,445.557678 130.259781,442.730560 129.910172,436.198914 
	C129.785767,433.874756 129.857117,431.540405 129.823547,429.210938 
	C129.757172,424.602539 130.710724,420.549194 134.595551,419.183411 
	C133.351593,416.338257 132.182571,413.664490 131.004028,410.550079 
M160.799377,428.014465 
	C159.393326,426.381287 158.175522,423.609558 156.544052,423.339783 
	C152.506805,422.672272 148.264465,422.955353 144.139755,423.290222 
	C142.961655,423.385834 141.460587,424.738739 140.864456,425.902710 
	C137.441711,432.585693 140.868408,438.347412 148.202515,438.517273 
	C149.200653,438.540405 150.199783,438.524841 151.198441,438.521637 
	C160.083786,438.493042 160.846069,437.728119 160.799377,428.014465 
M146.353851,400.700867 
	C140.965256,400.963074 141.203705,404.941437 141.219696,408.639862 
	C141.236588,412.549469 143.016174,414.950500 147.240250,414.894470 
	C149.896652,414.859253 152.693756,415.297302 155.159927,414.589661 
	C156.825623,414.111694 158.828613,412.235291 159.293213,410.592133 
	C161.275497,403.581116 158.888641,400.644226 151.656494,400.483429 
	C150.162216,400.450195 148.665253,400.537872 146.353851,400.700867 
z"/>
<path fill="#0A0800" opacity="1.000000" stroke="none" 
	d="
M330.661194,401.191925 
	C325.716095,401.191345 321.235382,401.191345 316.387329,401.191345 
	C316.387329,405.673584 316.387329,409.905762 316.387329,414.159973 
	C322.006958,414.159973 327.753662,413.883911 333.463196,414.226776 
	C341.382385,414.702332 343.850830,417.039917 344.568787,424.833069 
	C344.962494,429.106323 344.635071,433.470062 344.356018,437.775055 
	C344.020844,442.946014 340.747253,445.681213 335.875214,445.890533 
	C328.576355,446.204193 321.227875,446.361420 313.949097,445.868042 
	C306.313507,445.350525 303.973663,441.124237 305.307404,431.390686 
	C308.322906,431.390686 311.407471,431.390686 313.673401,431.390686 
	C315.365570,433.788361 316.633728,437.457886 318.387207,437.706665 
	C323.011810,438.362793 328.279694,438.554138 332.391907,436.809814 
	C334.109314,436.081329 334.239777,429.879791 333.723114,426.368134 
	C333.475647,424.686096 330.118713,422.394104 328.035492,422.243805 
	C320.930969,421.731201 313.766602,422.047577 306.462067,422.047577 
	C306.462067,413.007690 306.462067,403.433685 306.462067,393.500793 
	C318.748169,393.500793 330.626587,393.500793 342.849609,393.500793 
	C342.849609,397.897827 342.849609,402.283325 342.849609,406.933960 
	C340.345154,406.933960 337.918762,406.933960 335.416626,406.933960 
	C333.798798,405.178253 335.912537,400.551270 330.661194,401.191925 
z"/>
<path fill="#060500" opacity="1.000000" stroke="none" 
	d="
M86.846207,442.884521 
	C85.932968,444.168518 85.098045,445.122467 84.077271,445.793762 
	C83.611649,446.099945 82.779152,445.849304 82.113068,445.849335 
	C72.975288,445.849579 63.837502,445.849518 54.346138,445.849518 
	C54.346138,443.341553 54.346138,441.099518 54.346138,438.399872 
	C57.896927,438.199738 61.624447,437.989655 65.573555,437.767090 
	C65.573555,426.096893 65.573555,414.669830 65.573555,402.654358 
	C61.947990,402.944611 58.402157,403.228455 54.110752,403.571991 
	C53.706627,401.481201 53.253830,399.138580 52.690990,396.226624 
	C60.464893,395.069153 67.909103,393.960754 75.809845,392.784393 
	C75.809845,408.070984 75.809845,422.667480 75.809845,437.793884 
	C78.380188,437.922638 80.660652,438.311035 82.878609,438.085297 
	C86.417244,437.725128 87.275719,439.393860 86.846207,442.884521 
z"/>
<path fill="#F3C701" opacity="1.000000" stroke="none" 
	d="
M248.158798,429.204376 
	C248.081100,437.637238 247.273605,438.447266 239.308792,438.508179 
	C237.978287,438.518372 236.646500,438.542786 235.317200,438.500763 
	C228.604675,438.288483 227.196640,436.749237 227.504150,430.005768 
	C227.761642,424.359589 228.949875,423.150818 234.767258,422.898071 
	C237.089050,422.797241 239.420670,422.945160 241.747665,422.936523 
	C245.679413,422.921967 248.131973,424.499237 248.158798,429.204376 
z"/>
<path fill="#F3C701" opacity="1.000000" stroke="none" 
	d="
M237.135620,400.491272 
	C245.690994,400.603241 246.897552,401.334473 246.969513,406.646271 
	C247.008575,409.530243 247.866821,413.641846 244.019485,414.125671 
	C239.466751,414.698151 234.478317,414.369568 230.192856,412.915924 
	C228.934097,412.488953 228.433456,406.536041 229.461426,403.827850 
	C230.134827,402.053833 234.179016,401.559296 237.135620,400.491272 
z"/>
<path fill="#F2C601" opacity="1.000000" stroke="none" 
	d="
M160.818939,428.434082 
	C160.846069,437.728119 160.083786,438.493042 151.198441,438.521637 
	C150.199783,438.524841 149.200653,438.540405 148.202515,438.517273 
	C140.868408,438.347412 137.441711,432.585693 140.864456,425.902710 
	C141.460587,424.738739 142.961655,423.385834 144.139755,423.290222 
	C148.264465,422.955353 152.506805,422.672272 156.544052,423.339783 
	C158.175522,423.609558 159.393326,426.381287 160.818939,428.434082 
z"/>
<path fill="#F0C401" opacity="1.000000" stroke="none" 
	d="
M146.761688,400.635345 
	C148.665253,400.537872 150.162216,400.450195 151.656494,400.483429 
	C158.888641,400.644226 161.275497,403.581116 159.293213,410.592133 
	C158.828613,412.235291 156.825623,414.111694 155.159927,414.589661 
	C152.693756,415.297302 149.896652,414.859253 147.240250,414.894470 
	C143.016174,414.950500 141.236588,412.549469 141.219696,408.639862 
	C141.203705,404.941437 140.965256,400.963074 146.761688,400.635345 
z"/>
</svg>