<svg version="1.1" id="Layer_1" xmlns="http://www.w3.org/2000/svg" xmlns:xlink="http://www.w3.org/1999/xlink" x="0px" y="0px"
	 width="100%" viewBox="0 0 1197 242" enable-background="new 0 0 1197 242" xml:space="preserve">
<path fill="#FFFFFF" opacity="1.000000" stroke="none" 
	d="
M1198.000000,172.000000 
	C1198.000000,195.657333 1198.000000,219.314667 1198.000000,243.000000 
	C864.640808,243.000000 531.281677,243.000000 197.461243,242.531342 
	C197.000000,161.708450 197.000000,81.354225 197.000000,1.000000 
	C530.544983,1.000000 864.089905,1.000000 1198.000000,1.000000 
	C1198.000000,53.358601 1198.000000,105.718048 1197.542236,158.538757 
	C1194.486206,159.000000 1191.887939,159.000000 1189.000000,159.000000 
	C1189.000000,144.577972 1189.030884,130.783707 1188.987793,116.989647 
	C1188.963867,109.363167 1185.251831,104.665359 1177.995972,102.938820 
	C1165.923828,100.066246 1155.163086,103.036903 1144.867920,111.029114 
	C1144.867920,98.985802 1144.867920,87.630287 1144.867920,76.368103 
	C1135.621826,76.368103 1126.900757,76.368103 1118.213989,76.368103 
	C1117.530640,87.836494 1117.530640,87.836494 1127.692139,89.569916 
	C1127.692139,112.602074 1127.692139,135.645676 1127.692139,159.204773 
	C1124.325806,159.204773 1121.263428,159.204773 1118.234009,159.204773 
	C1118.234009,163.660355 1118.234009,167.596100 1118.234009,171.723724 
	C1130.516357,171.723724 1142.563721,171.723724 1154.677002,171.723724 
	C1154.677002,167.385147 1154.677002,163.330322 1154.677002,158.763123 
	C1151.294800,158.763123 1148.234619,158.763123 1145.001465,158.763123 
	C1145.001465,146.766449 1144.926636,135.287231 1145.110229,123.812164 
	C1145.129883,122.587311 1146.453979,120.582291 1147.521851,120.310501 
	C1152.846924,118.955185 1158.248779,117.656372 1163.700806,117.116570 
	C1168.832764,116.608452 1171.911499,119.903702 1171.975098,125.136719 
	C1172.070312,132.961105 1172.000000,140.787491 1172.000000,148.613022 
	C1172.000122,152.030426 1172.000000,155.447815 1172.000000,159.181152 
	C1168.629028,159.181152 1166.020630,159.181152 1163.309570,159.181152 
	C1163.309570,163.572235 1163.309570,167.624924 1163.309570,172.000000 
	C1175.077515,172.000000 1186.538696,172.000000 1198.000000,172.000000 
M264.019226,87.230316 
	C264.972992,87.819412 265.888031,88.823235 266.888123,88.916710 
	C269.471344,89.158165 272.092163,88.997604 274.652374,88.997604 
	C274.652374,112.000656 274.652374,134.383804 274.652374,157.285294 
	C270.908630,157.285294 267.516083,157.285294 264.277740,157.285294 
	C264.277740,162.414627 264.277740,167.018372 264.277740,171.674377 
	C277.608917,171.674377 290.660187,171.674377 303.627136,171.674377 
	C303.627136,166.614761 303.627136,161.886383 303.627136,156.837219 
	C300.311615,156.837219 297.369415,156.837219 294.219147,156.837219 
	C294.219147,137.586166 294.219147,118.672470 294.219147,99.758774 
	C294.481232,99.668137 294.743286,99.577499 295.005371,99.486870 
	C302.800964,123.616798 310.596588,147.746719 318.377106,171.830017 
	C324.988403,171.830017 331.287872,171.830017 337.679535,171.830017 
	C345.611847,146.672287 353.503998,121.641907 361.660461,95.773262 
	C361.660461,116.730797 361.660461,136.744873 361.660461,157.274567 
	C358.259399,157.274567 355.197479,157.274567 352.271240,157.274567 
	C352.271240,162.401520 352.271240,167.004791 352.271240,171.680847 
	C365.595612,171.680847 378.646759,171.680847 391.631592,171.680847 
	C391.631592,166.630203 391.631592,161.904388 391.631592,156.852081 
	C387.989044,156.852081 384.714294,156.852081 381.287537,156.852081 
	C381.287537,134.126175 381.287537,111.743446 381.287537,88.839890 
	C384.963196,88.839890 388.362732,88.839890 391.606567,88.839890 
	C391.606567,83.587181 391.606567,78.862358 391.606567,74.190857 
	C377.579590,74.190857 363.946899,74.190857 350.225281,74.190857 
	C343.089661,97.782486 335.999207,121.224739 328.835968,144.907669 
	C321.787079,121.753014 314.942322,99.076187 307.838959,76.480637 
	C307.467834,75.300110 304.911499,74.143333 303.347687,74.109070 
	C293.523987,73.893829 283.693268,74.000061 273.864868,74.000000 
	C270.619385,73.999985 267.373932,74.000000 264.002563,74.000000 
	C264.002563,78.623260 264.002563,82.451797 264.019226,87.230316 
M645.968018,162.456680 
	C646.959839,163.467163 647.816101,164.677704 648.965149,165.456085 
	C657.203552,171.036972 666.317505,170.266693 675.204590,168.112534 
	C679.371826,167.102417 683.059021,164.111694 686.998901,161.999756 
	C686.998901,164.889145 687.333374,168.080429 686.923218,171.172974 
	C686.253174,176.224487 686.364807,182.013367 679.755920,183.644531 
	C677.857422,184.113113 675.779175,183.800385 673.830627,184.127762 
	C664.442749,185.705048 660.572998,183.274536 658.488647,174.466064 
	C656.225220,174.645599 653.994141,174.898087 651.756836,174.979721 
	C649.312134,175.068909 646.861633,175.000000 644.487427,175.000000 
	C642.857849,187.903931 645.822327,194.155380 655.742188,195.642700 
	C664.837402,197.006393 674.222290,197.146515 683.431885,196.741638 
	C688.046936,196.538742 693.045532,194.700012 696.999695,192.215057 
	C703.176331,188.333435 703.747742,181.235229 703.912537,174.681717 
	C704.218079,162.535095 704.000000,150.375305 704.000000,138.221008 
	C704.000000,130.944229 704.000000,123.667458 704.000000,116.461075 
	C714.865112,115.160240 715.785034,113.781189 713.323486,103.365448 
	C704.582092,103.365448 695.873108,103.365448 687.176697,103.365448 
	C687.034790,105.292282 686.919739,106.854286 686.749146,109.170647 
	C678.807861,101.513420 669.410400,101.489128 659.987732,102.058281 
	C653.522461,102.448792 647.458313,104.578850 644.768494,110.983437 
	C642.982727,115.235222 642.257751,120.052925 641.739380,124.693428 
	C640.328125,137.326172 639.900391,149.936401 645.968018,162.456680 
M590.857422,171.211182 
	C590.857422,167.262741 590.857422,163.314316 590.857422,159.158478 
	C589.520264,159.093948 588.554077,159.024979 587.586853,159.004227 
	C581.004333,158.862869 581.001709,158.866150 581.000549,152.290375 
	C580.998596,140.463272 581.034058,128.636032 580.986267,116.809120 
	C580.960510,110.438339 577.317444,103.192101 572.705933,102.467880 
	C566.273743,101.457741 559.513428,100.786102 553.139099,101.693802 
	C547.724670,102.464821 542.658081,105.678398 536.354248,108.253807 
	C536.354248,96.542152 536.354248,85.389526 536.354248,74.390488 
	C526.587891,74.390488 517.864685,74.390488 509.255188,74.390488 
	C509.255188,78.732048 509.255188,82.681000 509.255188,86.461853 
	C512.648376,87.086441 515.778137,87.662544 519.000000,88.255608 
	C519.000000,108.927292 519.000000,129.073105 519.000000,149.218918 
	C519.000000,158.523346 518.999695,158.518906 509.996307,159.141968 
	C509.733887,159.160126 509.494049,159.504379 509.404602,159.573044 
	C509.404602,163.770477 509.404602,167.821075 509.404602,171.725372 
	C521.744629,171.725372 533.678711,171.725372 545.686768,171.725372 
	C545.686768,167.382004 545.686768,163.318909 545.686768,159.000397 
	C544.393005,159.000397 543.403809,158.917572 542.432556,159.014420 
	C537.685974,159.487793 535.641968,157.857635 535.880615,152.628952 
	C536.305359,143.319916 535.832825,133.971939 536.145569,124.654015 
	C536.205933,122.856354 537.808044,120.002113 539.278870,119.558540 
	C544.668030,117.933304 550.266052,116.859726 555.855774,116.087936 
	C559.867310,115.534058 562.681458,117.791611 562.927795,121.870972 
	C563.485535,131.106506 563.793152,140.362473 563.963806,149.614548 
	C564.130249,158.636124 563.999756,158.634415 555.099487,159.124023 
	C554.828003,159.138947 554.572388,159.442764 554.367188,159.574753 
	C554.367188,163.687378 554.367188,167.741165 554.367188,171.867538 
	C566.546082,171.867538 578.358215,171.867538 590.857422,171.211182 
M922.545776,89.000000 
	C925.967163,89.000000 929.388489,89.000000 932.754333,89.000000 
	C932.754333,112.009895 932.754333,134.281372 932.754333,157.074692 
	C929.125366,157.074692 925.720947,157.074692 922.354797,157.074692 
	C922.354797,162.326874 922.354797,167.049255 922.354797,171.767258 
	C936.314758,171.767258 949.918701,171.767258 963.714355,171.767258 
	C963.714355,166.808640 963.714355,162.085770 963.714355,156.841583 
	C960.043457,156.841583 956.639221,156.841583 953.395386,156.841583 
	C953.395386,133.926590 953.395386,111.538048 953.395386,89.270424 
	C959.402588,89.270424 965.011169,89.270424 970.601807,89.270424 
	C971.175232,95.219231 971.723267,100.904297 972.281372,106.693764 
	C977.220886,106.693764 981.945374,106.693764 986.638672,106.693764 
	C986.638672,95.994194 986.638672,85.604469 986.638672,75.239426 
	C957.339722,75.239426 928.402893,75.239426 899.294189,75.239426 
	C899.294189,85.869049 899.294189,96.257530 899.294189,106.675934 
	C904.333313,106.675934 909.073669,106.675934 913.880493,106.675934 
	C914.420593,100.664261 914.932190,94.969254 915.468445,89.000000 
	C917.619507,89.000000 919.595581,89.000000 922.545776,89.000000 
M830.445251,106.913261 
	C828.767822,107.840073 827.090393,108.766884 825.212708,109.804314 
	C825.026733,107.336632 824.871521,105.277428 824.728821,103.384399 
	C815.591125,103.384399 806.867188,103.384399 798.177185,103.384399 
	C797.601196,114.928085 797.601196,114.928085 806.666504,116.593498 
	C806.666504,130.646820 806.666504,144.700714 806.666504,159.264526 
	C803.608643,159.264526 800.877747,159.264526 798.261475,159.264526 
	C798.261475,163.719406 798.261475,167.654526 798.261475,171.694824 
	C810.240723,171.694824 821.956421,171.694824 833.650024,171.694824 
	C833.650024,167.325134 833.650024,163.267395 833.650024,158.884689 
	C830.693054,158.884689 828.080505,158.884689 825.242676,158.884689 
	C825.242676,146.141800 825.242676,133.730667 825.242676,121.658905 
	C831.076538,117.345642 837.487366,116.566177 844.230957,116.966049 
	C848.076660,117.194084 850.813049,118.968102 850.892456,122.756691 
	C851.142639,134.692474 850.984680,146.636795 850.984680,158.782776 
	C847.780029,158.945770 845.046204,159.084808 842.353394,159.221771 
	C842.353394,163.662277 842.353394,167.714523 842.353394,171.604660 
	C854.428711,171.604660 866.146729,171.604660 877.732605,171.604660 
	C877.732605,167.265045 877.732605,163.323242 877.732605,158.878204 
	C874.746460,158.878204 872.020874,158.878204 869.000000,158.878204 
	C869.000000,145.899918 869.057251,133.435471 868.983276,120.971794 
	C868.914246,109.336388 863.675598,102.580612 854.397583,102.010712 
	C846.248474,101.510162 838.313843,102.231140 830.445251,106.913261 
M748.581543,115.000000 
	C752.093323,115.550064 756.169678,115.159828 758.993713,116.855377 
	C764.111206,119.927948 763.112732,125.530197 762.813232,130.674332 
	C755.237732,131.130096 747.987122,131.357666 740.782654,132.058411 
	C733.567322,132.760208 726.296692,134.151276 721.481262,140.191711 
	C716.720459,146.163666 717.013977,158.598663 721.402832,164.879532 
	C725.271240,170.415604 736.521179,174.301071 743.569031,172.762054 
	C750.777954,171.187881 757.644714,169.020172 763.519348,161.775421 
	C763.844666,166.192932 764.042664,168.881821 764.251099,171.711548 
	C772.846191,171.711548 781.241882,171.711548 789.662109,171.711548 
	C789.662109,167.357559 789.662109,163.300964 789.662109,158.729706 
	C786.263123,158.729706 783.201782,158.729706 779.999939,158.729706 
	C779.999939,145.718948 780.061951,133.229095 779.979370,120.740219 
	C779.918274,111.514854 775.901672,105.750595 766.987976,103.605881 
	C755.992859,100.960381 744.836548,101.076416 733.745300,103.672501 
	C723.589783,106.049568 720.554993,113.373161 721.780334,125.237686 
	C726.664307,124.767677 731.550171,124.297485 736.394714,123.831268 
	C739.366150,115.516663 740.011108,115.015465 748.581543,115.000000 
M1005.000000,147.417587 
	C1005.099792,145.999435 1005.199585,144.581284 1005.310852,142.999878 
	C1017.575684,142.999878 1029.393555,143.135712 1041.202148,142.865173 
	C1043.152222,142.820496 1046.750610,140.954391 1046.726929,140.001099 
	C1046.506958,131.152237 1046.229248,122.225716 1044.801636,113.512856 
	C1043.797363,107.382858 1038.686401,103.842094 1032.654175,103.125641 
	C1025.459229,102.271118 1018.129700,101.799866 1010.905701,102.146225 
	C1003.253418,102.513115 995.056641,103.433105 991.340942,111.620880 
	C989.373901,115.955322 988.271606,121.022430 988.165100,125.789742 
	C987.947449,135.533401 988.369751,145.320068 989.093628,155.046967 
	C989.673401,162.837723 993.565369,168.879456 1001.507263,170.913544 
	C1010.630798,173.250305 1019.878601,172.953369 1029.328247,172.234009 
	C1043.152954,171.181610 1048.767944,163.476715 1046.405518,150.305283 
	C1041.333618,150.305283 1036.256226,150.305283 1031.207275,150.305283 
	C1030.640747,159.259720 1028.998291,160.253326 1015.666748,159.999847 
	C1008.422729,159.862122 1005.134094,156.262634 1005.000000,147.417587 
M1113.161499,125.873589 
	C1115.183838,114.639626 1112.553589,105.200310 1101.587280,103.463936 
	C1093.001953,102.104568 1084.044922,101.410728 1075.433472,102.257294 
	C1058.623901,103.909798 1056.439941,110.215179 1055.213501,121.972404 
	C1054.179321,131.885559 1054.134277,142.088211 1055.230469,151.987885 
	C1056.467651,163.160828 1058.008179,169.481766 1070.036377,171.235031 
	C1079.982544,172.684845 1090.293823,171.985565 1100.420410,171.613724 
	C1103.202759,171.511581 1106.324707,169.661255 1108.559448,167.755600 
	C1114.635864,162.574081 1113.892700,155.360336 1113.901855,148.296051 
	C1108.333984,148.296051 1103.259521,148.296051 1098.219604,148.296051 
	C1097.427002,157.224838 1095.491455,158.989609 1086.775757,158.999695 
	C1084.944458,159.001801 1083.112183,159.040787 1081.282227,158.991821 
	C1076.110596,158.853455 1072.498535,155.961792 1072.074951,150.859100 
	C1071.461182,143.465805 1070.836914,136.006760 1071.209106,128.625793 
	C1071.400269,124.834076 1072.670044,119.884659 1075.308350,117.652863 
	C1083.645142,110.600861 1096.587769,115.981979 1098.550415,126.661041 
	C1103.114502,126.434326 1107.674805,126.207809 1113.161499,125.873589 
M488.008728,171.944931 
	C500.348907,167.655502 504.386780,160.414337 501.255890,148.230423 
	C496.299591,148.230423 491.352875,148.230423 486.440125,148.230423 
	C485.259003,157.667755 483.718475,158.999741 474.221985,158.999985 
	C472.889587,159.000031 471.557159,159.008102 470.224823,158.998581 
	C464.346436,158.956589 460.408539,156.122787 460.141693,150.515121 
	C459.713287,141.512329 459.804565,132.464767 460.188873,123.457993 
	C460.280334,121.314545 461.885132,118.412880 463.682251,117.317375 
	C469.354034,113.859894 475.973602,114.086494 481.612427,116.644691 
	C484.383759,117.901978 485.578033,122.635529 488.063110,126.751892 
	C491.545532,126.460831 496.670349,126.032494 501.999176,125.587112 
	C501.999176,122.812820 502.263855,120.294624 501.950409,117.850586 
	C500.940521,109.976639 499.440613,105.088051 490.506317,103.500763 
	C481.637817,101.925156 472.331268,101.589432 463.339905,102.289841 
	C455.022797,102.937714 446.569580,105.311546 444.714874,115.738251 
	C442.186188,129.954147 441.907013,144.156998 444.744110,158.396545 
	C446.296844,166.190125 451.524536,170.035934 458.612396,171.715012 
	C462.413818,172.615494 466.433258,172.935501 470.351959,172.920044 
	C475.947296,172.897980 481.540497,172.327957 488.008728,171.944931 
M618.496704,172.000000 
	C623.590942,172.000000 628.685181,172.000000 633.774414,172.000000 
	C633.774414,167.357895 633.774414,163.418030 633.774414,158.965790 
	C630.832397,158.965790 628.103699,158.965790 624.864136,158.965790 
	C624.864136,140.060394 624.864136,121.666588 624.864136,103.383179 
	C615.608398,103.383179 606.883240,103.383179 598.259521,103.383179 
	C598.259521,107.711426 598.259521,111.654266 598.259521,116.106728 
	C601.572876,116.106728 604.635132,116.106728 607.637634,116.106728 
	C607.637634,130.691162 607.637634,144.750610 607.637634,159.142639 
	C604.331848,159.142639 601.388306,159.142639 598.297546,159.142639 
	C598.297546,163.541870 598.297546,167.597458 598.297546,172.000000 
	C604.892944,172.000000 611.195740,172.000000 618.496704,172.000000 
M427.000000,108.617165 
	C427.000000,106.852554 427.000000,105.087944 427.000000,103.340607 
	C418.004639,103.340607 409.627167,103.340607 401.378723,103.340607 
	C401.378723,107.743774 401.378723,111.799789 401.378723,116.173096 
	C404.364319,116.173096 406.969696,116.173096 409.728455,116.173096 
	C409.728455,130.541046 409.728455,144.578430 409.728455,159.125717 
	C406.739685,159.125717 404.016235,159.125717 401.364136,159.125717 
	C401.364136,163.692627 401.364136,167.740860 401.364136,171.611053 
	C413.438385,171.611053 425.145172,171.611053 436.743530,171.611053 
	C436.743530,167.283066 436.743530,163.346222 436.743530,158.907043 
	C433.438293,158.907043 430.380585,158.907043 427.000000,158.907043 
	C427.000000,142.126358 427.000000,125.857918 427.000000,108.617165 
M415.295593,75.906731 
	C412.964783,77.016075 408.788757,77.928268 408.645294,79.271317 
	C408.194580,83.489502 409.224487,87.874763 409.810944,92.177620 
	C409.856750,92.513428 410.889832,92.869019 411.498657,92.947754 
	C414.576019,93.345741 417.697876,94.096527 420.740265,93.869247 
	C423.682129,93.649483 426.971619,93.275200 428.041901,89.354637 
	C430.674561,79.710808 427.967133,74.216461 415.295593,75.906731 
M626.000000,86.324722 
	C625.999756,77.293900 625.999756,77.293915 617.732544,75.354202 
	C610.035034,73.548149 605.999512,76.712822 606.000427,84.555786 
	C606.000549,86.048531 605.597473,87.705231 606.114563,88.991066 
	C606.713806,90.480980 607.997803,92.615677 609.204529,92.771957 
	C613.134155,93.280891 617.164062,93.025169 621.155518,93.044792 
	C625.116272,93.064255 626.276733,90.733459 626.000000,86.324722 
z"/>
<path fill="#FCCE01" opacity="1.000000" stroke="none" 
	d="
M196.531342,1.000000 
	C197.000000,81.354225 197.000000,161.708450 197.000000,242.531342 
	C131.711777,243.000000 66.423546,243.000000 1.067659,243.000000 
	C1.067659,162.434174 1.067659,81.868286 1.067659,1.000000 
	C66.020584,1.000000 131.041626,1.000000 196.531342,1.000000 
M30.955568,117.523079 
	C35.172951,113.300835 39.998077,109.512054 43.416092,104.719688 
	C46.167843,100.861504 46.873203,95.607811 49.137337,91.316673 
	C50.817249,88.132782 52.977798,84.501312 55.923084,82.839760 
	C61.208664,79.857964 67.125816,77.794678 72.995689,76.096352 
	C82.003624,73.490105 91.449821,72.517906 99.315117,66.453354 
	C103.627853,63.128002 108.814415,60.935944 113.606964,58.232876 
	C114.500679,55.947136 116.055794,54.306389 117.664742,52.720249 
	C121.508171,48.931290 125.401382,45.192608 129.227875,41.386745 
	C132.335281,38.296108 134.969864,33.235229 138.543701,32.474197 
	C143.373520,31.445709 144.644333,25.423908 149.947266,26.109171 
	C151.097809,26.257845 152.424744,25.041565 153.670425,24.453962 
	C154.038010,26.150415 154.594986,27.833063 154.719955,29.547205 
	C154.845047,31.262854 153.754211,33.625488 154.551300,34.641083 
	C158.957306,40.254871 163.956345,45.405365 168.318329,51.049873 
	C169.299820,52.319962 169.304474,55.349098 168.464981,56.839855 
	C165.585236,61.953644 160.945572,63.456493 154.976105,61.234234 
	C155.345261,64.124626 156.790222,67.514320 155.740967,68.703735 
	C152.552063,72.318619 151.960907,76.400208 151.480637,80.755890 
	C151.240845,82.930336 151.044052,85.204819 150.252502,87.206551 
	C146.907089,95.666649 141.469772,102.087120 132.541733,104.264305 
	C132.541733,107.008392 132.541733,109.450264 132.541733,111.628822 
	C134.842087,109.558495 136.952286,107.659317 139.111374,105.716141 
	C140.451111,117.576691 141.713043,128.748337 143.153366,141.499405 
	C152.232864,134.676758 159.940323,140.431351 167.375580,142.620300 
	C175.002899,144.865784 181.694183,150.290741 188.730560,154.287491 
	C188.730560,106.200928 188.730560,57.803806 188.730560,9.316372 
	C128.744644,9.316372 69.028702,9.316372 9.319141,9.316372 
	C9.319141,62.343613 9.319141,115.053841 9.319141,167.189285 
	C17.264618,166.103210 25.022053,165.310089 32.663921,163.893524 
	C36.940948,163.100693 41.468197,161.948303 45.010056,159.626648 
	C46.756821,158.481659 46.590900,154.330185 47.171410,151.514587 
	C48.120117,146.913177 50.701118,141.739532 49.447212,137.811691 
	C47.689186,132.304688 49.834427,129.816132 52.925873,126.411118 
	C57.719810,121.130920 57.001423,117.624138 50.929676,113.127342 
	C49.612946,119.319183 47.509979,124.674919 39.512646,126.776222 
	C30.114292,129.245651 27.064905,128.530563 23.008675,122.617676 
	C25.456392,121.053970 27.900150,119.492790 30.955568,117.523079 
M176.488113,180.000000 
	C120.745483,180.000000 65.002846,180.000000 9.392058,180.000000 
	C9.392058,198.738998 9.392058,216.792191 9.392058,234.745575 
	C69.377472,234.745575 128.970520,234.745575 188.695129,234.745575 
	C188.695129,216.438049 188.695129,198.386353 188.695129,180.000000 
	C184.756516,180.000000 181.118958,180.000000 176.488113,180.000000 
M119.513145,136.013046 
	C117.714882,128.131638 115.916611,120.250221 114.154877,112.528885 
	C105.806511,111.990074 97.215256,111.845528 88.747284,110.748947 
	C82.828491,109.982475 81.546181,110.504150 78.850723,115.521881 
	C76.769753,119.395744 73.920944,123.219406 70.514664,125.939987 
	C64.347496,130.865646 58.862812,135.634232 60.981392,144.612411 
	C61.526844,146.923935 61.417927,151.101959 62.338177,151.317917 
	C66.422394,152.276352 69.663696,156.005219 74.734428,154.289795 
	C79.269791,152.755478 84.846870,151.110046 89.060616,152.420181 
	C101.169899,156.185181 111.244179,150.793808 122.079666,147.954605 
	C121.266647,143.745087 120.591995,140.251938 119.513145,136.013046 
M130.000198,134.999023 
	C130.391708,138.042648 128.404465,142.849182 135.042755,141.721313 
	C133.848297,138.732468 132.780579,136.060791 131.712860,133.389114 
	C131.142685,133.655304 130.572495,133.921509 130.000198,134.999023 
z"/>
<path fill="#FCCE01" opacity="1.000000" stroke="none" 
	d="
M1198.000000,171.536819 
	C1186.538696,172.000000 1175.077515,172.000000 1163.309570,172.000000 
	C1163.309570,167.624924 1163.309570,163.572235 1163.309570,159.181152 
	C1166.020630,159.181152 1168.629028,159.181152 1172.000000,159.181152 
	C1172.000000,155.447815 1172.000122,152.030426 1172.000000,148.613022 
	C1172.000000,140.787491 1172.070312,132.961105 1171.975098,125.136719 
	C1171.911499,119.903702 1168.832764,116.608452 1163.700806,117.116570 
	C1158.248779,117.656372 1152.846924,118.955185 1147.521851,120.310501 
	C1146.453979,120.582291 1145.129883,122.587311 1145.110229,123.812164 
	C1144.926636,135.287231 1145.001465,146.766449 1145.001465,158.763123 
	C1148.234619,158.763123 1151.294800,158.763123 1154.677002,158.763123 
	C1154.677002,163.330322 1154.677002,167.385147 1154.677002,171.723724 
	C1142.563721,171.723724 1130.516357,171.723724 1118.234009,171.723724 
	C1118.234009,167.596100 1118.234009,163.660355 1118.234009,159.204773 
	C1121.263428,159.204773 1124.325806,159.204773 1127.692139,159.204773 
	C1127.692139,135.645676 1127.692139,112.602074 1127.692139,89.569916 
	C1117.530640,87.836494 1117.530640,87.836494 1118.213989,76.368103 
	C1126.900757,76.368103 1135.621826,76.368103 1144.867920,76.368103 
	C1144.867920,87.630287 1144.867920,98.985802 1144.867920,111.029114 
	C1155.163086,103.036903 1165.923828,100.066246 1177.995972,102.938820 
	C1185.251831,104.665359 1188.963867,109.363167 1188.987793,116.989647 
	C1189.030884,130.783707 1189.000000,144.577972 1189.000000,159.000000 
	C1191.887939,159.000000 1194.486206,159.000000 1197.542236,159.000000 
	C1198.000000,163.024551 1198.000000,167.049088 1198.000000,171.536819 
z"/>
<path fill="#FCCE01" opacity="1.000000" stroke="none" 
	d="
M264.010895,86.755325 
	C264.002563,82.451797 264.002563,78.623260 264.002563,74.000000 
	C267.373932,74.000000 270.619385,73.999985 273.864868,74.000000 
	C283.693268,74.000061 293.523987,73.893829 303.347687,74.109070 
	C304.911499,74.143333 307.467834,75.300110 307.838959,76.480637 
	C314.942322,99.076187 321.787079,121.753014 328.835968,144.907669 
	C335.999207,121.224739 343.089661,97.782486 350.225281,74.190857 
	C363.946899,74.190857 377.579590,74.190857 391.606567,74.190857 
	C391.606567,78.862358 391.606567,83.587181 391.606567,88.839890 
	C388.362732,88.839890 384.963196,88.839890 381.287537,88.839890 
	C381.287537,111.743446 381.287537,134.126175 381.287537,156.852081 
	C384.714294,156.852081 387.989044,156.852081 391.631592,156.852081 
	C391.631592,161.904388 391.631592,166.630203 391.631592,171.680847 
	C378.646759,171.680847 365.595612,171.680847 352.271240,171.680847 
	C352.271240,167.004791 352.271240,162.401520 352.271240,157.274567 
	C355.197479,157.274567 358.259399,157.274567 361.660461,157.274567 
	C361.660461,136.744873 361.660461,116.730797 361.660461,95.773262 
	C353.503998,121.641907 345.611847,146.672287 337.679535,171.830017 
	C331.287872,171.830017 324.988403,171.830017 318.377106,171.830017 
	C310.596588,147.746719 302.800964,123.616798 295.005371,99.486870 
	C294.743286,99.577499 294.481232,99.668137 294.219147,99.758774 
	C294.219147,118.672470 294.219147,137.586166 294.219147,156.837219 
	C297.369415,156.837219 300.311615,156.837219 303.627136,156.837219 
	C303.627136,161.886383 303.627136,166.614761 303.627136,171.674377 
	C290.660187,171.674377 277.608917,171.674377 264.277740,171.674377 
	C264.277740,167.018372 264.277740,162.414627 264.277740,157.285294 
	C267.516083,157.285294 270.908630,157.285294 274.652374,157.285294 
	C274.652374,134.383804 274.652374,112.000656 274.652374,88.997604 
	C272.092163,88.997604 269.471344,89.158165 266.888123,88.916710 
	C265.888031,88.823235 264.972992,87.819412 264.010895,86.755325 
z"/>
<path fill="#FCCE01" opacity="1.000000" stroke="none" 
	d="
M645.701660,162.184357 
	C639.900391,149.936401 640.328125,137.326172 641.739380,124.693428 
	C642.257751,120.052925 642.982727,115.235222 644.768494,110.983437 
	C647.458313,104.578850 653.522461,102.448792 659.987732,102.058281 
	C669.410400,101.489128 678.807861,101.513420 686.749146,109.170647 
	C686.919739,106.854286 687.034790,105.292282 687.176697,103.365448 
	C695.873108,103.365448 704.582092,103.365448 713.323486,103.365448 
	C715.785034,113.781189 714.865112,115.160240 704.000000,116.461075 
	C704.000000,123.667458 704.000000,130.944229 704.000000,138.221008 
	C704.000000,150.375305 704.218079,162.535095 703.912537,174.681717 
	C703.747742,181.235229 703.176331,188.333435 696.999695,192.215057 
	C693.045532,194.700012 688.046936,196.538742 683.431885,196.741638 
	C674.222290,197.146515 664.837402,197.006393 655.742188,195.642700 
	C645.822327,194.155380 642.857849,187.903931 644.487427,175.000000 
	C646.861633,175.000000 649.312134,175.068909 651.756836,174.979721 
	C653.994141,174.898087 656.225220,174.645599 658.488647,174.466064 
	C660.572998,183.274536 664.442749,185.705048 673.830627,184.127762 
	C675.779175,183.800385 677.857422,184.113113 679.755920,183.644531 
	C686.364807,182.013367 686.253174,176.224487 686.923218,171.172974 
	C687.333374,168.080429 686.998901,164.889145 686.998901,161.999756 
	C683.059021,164.111694 679.371826,167.102417 675.204590,168.112534 
	C666.317505,170.266693 657.203552,171.036972 648.965149,165.456085 
	C647.816101,164.677704 646.959839,163.467163 645.701660,162.184357 
M663.977234,117.050072 
	C662.296875,119.042778 659.836670,120.777580 659.076904,123.074760 
	C656.404968,131.153320 657.182983,139.529755 658.394714,147.769806 
	C659.079773,152.428406 662.630493,154.571854 667.060913,154.940582 
	C670.366333,155.215698 673.738525,155.258057 677.036621,154.941620 
	C685.422302,154.136993 687.000000,152.250000 687.000000,143.808517 
	C687.000000,136.985291 687.195190,130.152451 686.860168,123.345718 
	C686.777893,121.673485 685.335083,119.243927 683.883789,118.606903 
	C677.796143,115.934792 671.372314,115.065521 663.977234,117.050072 
z"/>
<path fill="#FCCE01" opacity="1.000000" stroke="none" 
	d="
M590.513916,171.539368 
	C578.358215,171.867538 566.546082,171.867538 554.367188,171.867538 
	C554.367188,167.741165 554.367188,163.687378 554.367188,159.574753 
	C554.572388,159.442764 554.828003,159.138947 555.099487,159.124023 
	C563.999756,158.634415 564.130249,158.636124 563.963806,149.614548 
	C563.793152,140.362473 563.485535,131.106506 562.927795,121.870972 
	C562.681458,117.791611 559.867310,115.534058 555.855774,116.087936 
	C550.266052,116.859726 544.668030,117.933304 539.278870,119.558540 
	C537.808044,120.002113 536.205933,122.856354 536.145569,124.654015 
	C535.832825,133.971939 536.305359,143.319916 535.880615,152.628952 
	C535.641968,157.857635 537.685974,159.487793 542.432556,159.014420 
	C543.403809,158.917572 544.393005,159.000397 545.686768,159.000397 
	C545.686768,163.318909 545.686768,167.382004 545.686768,171.725372 
	C533.678711,171.725372 521.744629,171.725372 509.404602,171.725372 
	C509.404602,167.821075 509.404602,163.770477 509.404602,159.573044 
	C509.494049,159.504379 509.733887,159.160126 509.996307,159.141968 
	C518.999695,158.518906 519.000000,158.523346 519.000000,149.218918 
	C519.000000,129.073105 519.000000,108.927292 519.000000,88.255608 
	C515.778137,87.662544 512.648376,87.086441 509.255188,86.461853 
	C509.255188,82.681000 509.255188,78.732048 509.255188,74.390488 
	C517.864685,74.390488 526.587891,74.390488 536.354248,74.390488 
	C536.354248,85.389526 536.354248,96.542152 536.354248,108.253807 
	C542.658081,105.678398 547.724670,102.464821 553.139099,101.693802 
	C559.513428,100.786102 566.273743,101.457741 572.705933,102.467880 
	C577.317444,103.192101 580.960510,110.438339 580.986267,116.809120 
	C581.034058,128.636032 580.998596,140.463272 581.000549,152.290375 
	C581.001709,158.866150 581.004333,158.862869 587.586853,159.004227 
	C588.554077,159.024979 589.520264,159.093948 590.857422,159.158478 
	C590.857422,163.314316 590.857422,167.262741 590.513916,171.539368 
z"/>
<path fill="#FCCE01" opacity="1.000000" stroke="none" 
	d="
M922.058716,89.000000 
	C919.595581,89.000000 917.619507,89.000000 915.468445,89.000000 
	C914.932190,94.969254 914.420593,100.664261 913.880493,106.675934 
	C909.073669,106.675934 904.333313,106.675934 899.294189,106.675934 
	C899.294189,96.257530 899.294189,85.869049 899.294189,75.239426 
	C928.402893,75.239426 957.339722,75.239426 986.638672,75.239426 
	C986.638672,85.604469 986.638672,95.994194 986.638672,106.693764 
	C981.945374,106.693764 977.220886,106.693764 972.281372,106.693764 
	C971.723267,100.904297 971.175232,95.219231 970.601807,89.270424 
	C965.011169,89.270424 959.402588,89.270424 953.395386,89.270424 
	C953.395386,111.538048 953.395386,133.926590 953.395386,156.841583 
	C956.639221,156.841583 960.043457,156.841583 963.714355,156.841583 
	C963.714355,162.085770 963.714355,166.808640 963.714355,171.767258 
	C949.918701,171.767258 936.314758,171.767258 922.354797,171.767258 
	C922.354797,167.049255 922.354797,162.326874 922.354797,157.074692 
	C925.720947,157.074692 929.125366,157.074692 932.754333,157.074692 
	C932.754333,134.281372 932.754333,112.009895 932.754333,89.000000 
	C929.388489,89.000000 925.967163,89.000000 922.058716,89.000000 
z"/>
<path fill="#FCCE01" opacity="1.000000" stroke="none" 
	d="
M830.749268,106.681076 
	C838.313843,102.231140 846.248474,101.510162 854.397583,102.010712 
	C863.675598,102.580612 868.914246,109.336388 868.983276,120.971794 
	C869.057251,133.435471 869.000000,145.899918 869.000000,158.878204 
	C872.020874,158.878204 874.746460,158.878204 877.732605,158.878204 
	C877.732605,163.323242 877.732605,167.265045 877.732605,171.604660 
	C866.146729,171.604660 854.428711,171.604660 842.353394,171.604660 
	C842.353394,167.714523 842.353394,163.662277 842.353394,159.221771 
	C845.046204,159.084808 847.780029,158.945770 850.984680,158.782776 
	C850.984680,146.636795 851.142639,134.692474 850.892456,122.756691 
	C850.813049,118.968102 848.076660,117.194084 844.230957,116.966049 
	C837.487366,116.566177 831.076538,117.345642 825.242676,121.658905 
	C825.242676,133.730667 825.242676,146.141800 825.242676,158.884689 
	C828.080505,158.884689 830.693054,158.884689 833.650024,158.884689 
	C833.650024,163.267395 833.650024,167.325134 833.650024,171.694824 
	C821.956421,171.694824 810.240723,171.694824 798.261475,171.694824 
	C798.261475,167.654526 798.261475,163.719406 798.261475,159.264526 
	C800.877747,159.264526 803.608643,159.264526 806.666504,159.264526 
	C806.666504,144.700714 806.666504,130.646820 806.666504,116.593498 
	C797.601196,114.928085 797.601196,114.928085 798.177185,103.384399 
	C806.867188,103.384399 815.591125,103.384399 824.728821,103.384399 
	C824.871521,105.277428 825.026733,107.336632 825.212708,109.804314 
	C827.090393,108.766884 828.767822,107.840073 830.749268,106.681076 
z"/>
<path fill="#FCCE01" opacity="1.000000" stroke="none" 
	d="
M748.121582,115.000000 
	C740.011108,115.015465 739.366150,115.516663 736.394714,123.831268 
	C731.550171,124.297485 726.664307,124.767677 721.780334,125.237686 
	C720.554993,113.373161 723.589783,106.049568 733.745300,103.672501 
	C744.836548,101.076416 755.992859,100.960381 766.987976,103.605881 
	C775.901672,105.750595 779.918274,111.514854 779.979370,120.740219 
	C780.061951,133.229095 779.999939,145.718948 779.999939,158.729706 
	C783.201782,158.729706 786.263123,158.729706 789.662109,158.729706 
	C789.662109,163.300964 789.662109,167.357559 789.662109,171.711548 
	C781.241882,171.711548 772.846191,171.711548 764.251099,171.711548 
	C764.042664,168.881821 763.844666,166.192932 763.519348,161.775421 
	C757.644714,169.020172 750.777954,171.187881 743.569031,172.762054 
	C736.521179,174.301071 725.271240,170.415604 721.402832,164.879532 
	C717.013977,158.598663 716.720459,146.163666 721.481262,140.191711 
	C726.296692,134.151276 733.567322,132.760208 740.782654,132.058411 
	C747.987122,131.357666 755.237732,131.130096 762.813232,130.674332 
	C763.112732,125.530197 764.111206,119.927948 758.993713,116.855377 
	C756.169678,115.159828 752.093323,115.550064 748.121582,115.000000 
M750.634827,141.999985 
	C746.695251,142.873749 742.548035,143.240479 738.867859,144.747696 
	C734.107971,146.697174 733.562622,152.716949 737.054810,156.604248 
	C740.750427,160.717957 745.268982,159.457703 749.705322,158.987854 
	C758.387939,158.068298 763.825684,150.982132 762.414795,142.000000 
	C758.858276,142.000000 755.225708,142.000000 750.634827,141.999985 
z"/>
<path fill="#FCCE01" opacity="1.000000" stroke="none" 
	d="
M1005.000000,147.871124 
	C1005.134094,156.262634 1008.422729,159.862122 1015.666748,159.999847 
	C1028.998291,160.253326 1030.640747,159.259720 1031.207275,150.305283 
	C1036.256226,150.305283 1041.333618,150.305283 1046.405518,150.305283 
	C1048.767944,163.476715 1043.152954,171.181610 1029.328247,172.234009 
	C1019.878601,172.953369 1010.630798,173.250305 1001.507263,170.913544 
	C993.565369,168.879456 989.673401,162.837723 989.093628,155.046967 
	C988.369751,145.320068 987.947449,135.533401 988.165100,125.789742 
	C988.271606,121.022430 989.373901,115.955322 991.340942,111.620880 
	C995.056641,103.433105 1003.253418,102.513115 1010.905701,102.146225 
	C1018.129700,101.799866 1025.459229,102.271118 1032.654175,103.125641 
	C1038.686401,103.842094 1043.797363,107.382858 1044.801636,113.512856 
	C1046.229248,122.225716 1046.506958,131.152237 1046.726929,140.001099 
	C1046.750610,140.954391 1043.152222,142.820496 1041.202148,142.865173 
	C1029.393555,143.135712 1017.575684,142.999878 1005.310852,142.999878 
	C1005.199585,144.581284 1005.099792,145.999435 1005.000000,147.871124 
M1030.956299,124.088348 
	C1027.306885,112.810738 1024.778809,114.319412 1012.349243,115.321777 
	C1002.758118,116.095238 1005.940308,125.566109 1004.559631,131.686432 
	C1013.297729,131.686432 1022.018555,131.686432 1030.993774,131.686432 
	C1030.993774,129.235031 1030.993774,127.095482 1030.956299,124.088348 
z"/>
<path fill="#FCCE01" opacity="1.000000" stroke="none" 
	d="
M1112.698242,125.927437 
	C1107.674805,126.207809 1103.114502,126.434326 1098.550415,126.661041 
	C1096.587769,115.981979 1083.645142,110.600861 1075.308350,117.652863 
	C1072.670044,119.884659 1071.400269,124.834076 1071.209106,128.625793 
	C1070.836914,136.006760 1071.461182,143.465805 1072.074951,150.859100 
	C1072.498535,155.961792 1076.110596,158.853455 1081.282227,158.991821 
	C1083.112183,159.040787 1084.944458,159.001801 1086.775757,158.999695 
	C1095.491455,158.989609 1097.427002,157.224838 1098.219604,148.296051 
	C1103.259521,148.296051 1108.333984,148.296051 1113.901855,148.296051 
	C1113.892700,155.360336 1114.635864,162.574081 1108.559448,167.755600 
	C1106.324707,169.661255 1103.202759,171.511581 1100.420410,171.613724 
	C1090.293823,171.985565 1079.982544,172.684845 1070.036377,171.235031 
	C1058.008179,169.481766 1056.467651,163.160828 1055.230469,151.987885 
	C1054.134277,142.088211 1054.179321,131.885559 1055.213501,121.972404 
	C1056.439941,110.215179 1058.623901,103.909798 1075.433472,102.257294 
	C1084.044922,101.410728 1093.001953,102.104568 1101.587280,103.463936 
	C1112.553589,105.200310 1115.183838,114.639626 1112.698242,125.927437 
z"/>
<path fill="#FCCE01" opacity="1.000000" stroke="none" 
	d="
M487.571655,171.968445 
	C481.540497,172.327957 475.947296,172.897980 470.351959,172.920044 
	C466.433258,172.935501 462.413818,172.615494 458.612396,171.715012 
	C451.524536,170.035934 446.296844,166.190125 444.744110,158.396545 
	C441.907013,144.156998 442.186188,129.954147 444.714874,115.738251 
	C446.569580,105.311546 455.022797,102.937714 463.339905,102.289841 
	C472.331268,101.589432 481.637817,101.925156 490.506317,103.500763 
	C499.440613,105.088051 500.940521,109.976639 501.950409,117.850586 
	C502.263855,120.294624 501.999176,122.812820 501.999176,125.587112 
	C496.670349,126.032494 491.545532,126.460831 488.063110,126.751892 
	C485.578033,122.635529 484.383759,117.901978 481.612427,116.644691 
	C475.973602,114.086494 469.354034,113.859894 463.682251,117.317375 
	C461.885132,118.412880 460.280334,121.314545 460.188873,123.457993 
	C459.804565,132.464767 459.713287,141.512329 460.141693,150.515121 
	C460.408539,156.122787 464.346436,158.956589 470.224823,158.998581 
	C471.557159,159.008102 472.889587,159.000031 474.221985,158.999985 
	C483.718475,158.999741 485.259003,157.667755 486.440125,148.230423 
	C491.352875,148.230423 496.299591,148.230423 501.255890,148.230423 
	C504.386780,160.414337 500.348907,167.655502 487.571655,171.968445 
z"/>
<path fill="#FCCE01" opacity="1.000000" stroke="none" 
	d="
M617.997620,172.000000 
	C611.195740,172.000000 604.892944,172.000000 598.297546,172.000000 
	C598.297546,167.597458 598.297546,163.541870 598.297546,159.142639 
	C601.388306,159.142639 604.331848,159.142639 607.637634,159.142639 
	C607.637634,144.750610 607.637634,130.691162 607.637634,116.106728 
	C604.635132,116.106728 601.572876,116.106728 598.259521,116.106728 
	C598.259521,111.654266 598.259521,107.711426 598.259521,103.383179 
	C606.883240,103.383179 615.608398,103.383179 624.864136,103.383179 
	C624.864136,121.666588 624.864136,140.060394 624.864136,158.965790 
	C628.103699,158.965790 630.832397,158.965790 633.774414,158.965790 
	C633.774414,163.418030 633.774414,167.357895 633.774414,172.000000 
	C628.685181,172.000000 623.590942,172.000000 617.997620,172.000000 
z"/>
<path fill="#FCCE01" opacity="1.000000" stroke="none" 
	d="
M427.000000,109.103325 
	C427.000000,125.857918 427.000000,142.126358 427.000000,158.907043 
	C430.380585,158.907043 433.438293,158.907043 436.743530,158.907043 
	C436.743530,163.346222 436.743530,167.283066 436.743530,171.611053 
	C425.145172,171.611053 413.438385,171.611053 401.364136,171.611053 
	C401.364136,167.740860 401.364136,163.692627 401.364136,159.125717 
	C404.016235,159.125717 406.739685,159.125717 409.728455,159.125717 
	C409.728455,144.578430 409.728455,130.541046 409.728455,116.173096 
	C406.969696,116.173096 404.364319,116.173096 401.378723,116.173096 
	C401.378723,111.799789 401.378723,107.743774 401.378723,103.340607 
	C409.627167,103.340607 418.004639,103.340607 427.000000,103.340607 
	C427.000000,105.087944 427.000000,106.852554 427.000000,109.103325 
z"/>
<path fill="#FCCE01" opacity="1.000000" stroke="none" 
	d="
M415.661133,75.690872 
	C427.967133,74.216461 430.674561,79.710808 428.041901,89.354637 
	C426.971619,93.275200 423.682129,93.649483 420.740265,93.869247 
	C417.697876,94.096527 414.576019,93.345741 411.498657,92.947754 
	C410.889832,92.869019 409.856750,92.513428 409.810944,92.177620 
	C409.224487,87.874763 408.194580,83.489502 408.645294,79.271317 
	C408.788757,77.928268 412.964783,77.016075 415.661133,75.690872 
z"/>
<path fill="#FCCE01" opacity="1.000000" stroke="none" 
	d="
M626.000000,86.771553 
	C626.276733,90.733459 625.116272,93.064255 621.155518,93.044792 
	C617.164062,93.025169 613.134155,93.280891 609.204529,92.771957 
	C607.997803,92.615677 606.713806,90.480980 606.114563,88.991066 
	C605.597473,87.705231 606.000549,86.048531 606.000427,84.555786 
	C605.999512,76.712822 610.035034,73.548149 617.732544,75.354202 
	C625.999756,77.293915 625.999756,77.293900 626.000000,86.771553 
z"/>
<path fill="#FFFFFF" opacity="1.000000" stroke="none" 
	d="
M30.649738,117.727348 
	C27.900150,119.492790 25.456392,121.053970 23.008675,122.617676 
	C27.064905,128.530563 30.114292,129.245651 39.512646,126.776222 
	C47.509979,124.674919 49.612946,119.319183 50.929676,113.127342 
	C57.001423,117.624138 57.719810,121.130920 52.925873,126.411118 
	C49.834427,129.816132 47.689186,132.304688 49.447212,137.811691 
	C50.701118,141.739532 48.120117,146.913177 47.171410,151.514587 
	C46.590900,154.330185 46.756821,158.481659 45.010056,159.626648 
	C41.468197,161.948303 36.940948,163.100693 32.663921,163.893524 
	C25.022053,165.310089 17.264618,166.103210 9.319141,167.189285 
	C9.319141,115.053841 9.319141,62.343613 9.319141,9.316372 
	C69.028702,9.316372 128.744644,9.316372 188.730560,9.316372 
	C188.730560,57.803806 188.730560,106.200928 188.730560,154.287491 
	C181.694183,150.290741 175.002899,144.865784 167.375580,142.620300 
	C159.940323,140.431351 152.232864,134.676758 143.153366,141.499405 
	C141.713043,128.748337 140.451111,117.576691 139.111374,105.716141 
	C136.952286,107.659317 134.842087,109.558495 132.541733,111.628822 
	C132.541733,109.450264 132.541733,107.008392 132.541733,104.264305 
	C141.469772,102.087120 146.907089,95.666649 150.252502,87.206551 
	C151.044052,85.204819 151.240845,82.930336 151.480637,80.755890 
	C151.960907,76.400208 152.552063,72.318619 155.740967,68.703735 
	C156.790222,67.514320 155.345261,64.124626 154.976105,61.234234 
	C160.945572,63.456493 165.585236,61.953644 168.464981,56.839855 
	C169.304474,55.349098 169.299820,52.319962 168.318329,51.049873 
	C163.956345,45.405365 158.957306,40.254871 154.551300,34.641083 
	C153.754211,33.625488 154.845047,31.262854 154.719955,29.547205 
	C154.594986,27.833063 154.038010,26.150415 153.670425,24.453964 
	C152.424744,25.041565 151.097809,26.257845 149.947266,26.109171 
	C144.644333,25.423908 143.373520,31.445709 138.543701,32.474197 
	C134.969864,33.235229 132.335281,38.296108 129.227875,41.386745 
	C125.401382,45.192608 121.508171,48.931290 117.664742,52.720249 
	C116.055794,54.306389 114.500679,55.947136 113.606964,58.232876 
	C108.814415,60.935944 103.627853,63.128002 99.315117,66.453354 
	C91.449821,72.517906 82.003624,73.490105 72.995689,76.096352 
	C67.125816,77.794678 61.208664,79.857964 55.923084,82.839760 
	C52.977798,84.501312 50.817249,88.132782 49.137337,91.316673 
	C46.873203,95.607811 46.167843,100.861504 43.416092,104.719688 
	C39.998077,109.512054 35.172951,113.300835 30.649738,117.727348 
z"/>
<path fill="#FFFFFF" opacity="1.000000" stroke="none" 
	d="
M176.984741,180.000000 
	C181.118958,180.000000 184.756516,180.000000 188.695129,180.000000 
	C188.695129,198.386353 188.695129,216.438049 188.695129,234.745575 
	C128.970520,234.745575 69.377472,234.745575 9.392058,234.745575 
	C9.392058,216.792191 9.392058,198.738998 9.392058,180.000000 
	C65.002846,180.000000 120.745483,180.000000 176.984741,180.000000 
M64.293671,209.258286 
	C64.195793,210.578140 64.043175,211.896576 64.009247,213.218079 
	C63.838528,219.868393 65.545197,221.652084 71.528816,221.048355 
	C74.331520,220.765549 77.186371,221.003448 80.017570,220.998123 
	C82.914833,220.992676 85.181511,220.500809 85.059029,216.684631 
	C84.860336,210.494720 85.241776,204.273453 84.753708,198.114929 
	C84.637848,196.653015 82.188988,194.468246 80.565247,194.216644 
	C76.825829,193.637222 72.896523,193.719681 69.117363,194.160385 
	C66.637444,194.449600 64.632278,195.901001 64.932465,199.216049 
	C65.214767,202.333496 64.929253,205.502365 64.293671,209.258286 
M128.998978,212.690109 
	C128.665192,209.611588 127.952179,206.518356 128.071045,203.457413 
	C128.386642,195.330414 127.263229,194.001587 119.024185,194.000183 
	C117.199532,193.999863 115.370827,193.924515 113.551079,194.019440 
	C109.982285,194.205582 107.798096,195.499374 107.906090,199.725861 
	C108.009911,203.789169 107.431473,207.882538 106.986084,211.944412 
	C106.223450,218.899445 108.071632,220.998901 115.189125,220.999969 
	C117.179657,221.000259 119.170197,221.000534 121.160728,220.999924 
	C128.082397,220.997757 128.286133,220.803757 128.998978,212.690109 
M156.836151,220.999954 
	C158.000824,220.999969 159.166794,220.963989 160.329987,221.005539 
	C172.632050,221.445007 171.055725,220.244217 170.788040,209.532562 
	C170.749390,207.986618 168.123505,205.655930 166.313065,205.197983 
	C163.423004,204.466965 160.212601,205.002457 157.253235,205.002457 
	C157.253235,202.619370 157.253235,201.011276 157.253235,198.205994 
	C162.072220,199.664795 166.302155,200.945267 170.773209,202.298737 
	C170.773209,199.006149 170.773209,196.737137 170.773209,194.276031 
	C164.160828,194.276031 157.776123,194.276031 151.259583,194.276031 
	C151.259583,199.636963 151.259583,204.718597 151.259583,209.710770 
	C154.602036,209.463303 157.723114,208.877090 160.763596,209.159256 
	C162.249512,209.297165 164.240509,210.793930 164.777206,212.157928 
	C165.189667,213.206177 163.914185,216.048004 162.984192,216.252869 
	C161.212097,216.643204 159.069473,215.944260 157.231659,215.279922 
	C155.314880,214.587067 153.576096,213.401840 151.207916,212.137360 
	C150.843094,217.434113 150.598831,221.060471 156.836151,220.999954 
M32.987888,214.112610 
	C32.093323,214.742355 31.229681,215.855774 30.298647,215.915329 
	C26.874819,216.134247 26.695061,218.029877 27.328939,220.776611 
	C32.858047,220.776611 38.278030,220.776611 43.632683,220.776611 
	C45.170944,215.416321 40.996742,216.177155 37.868694,215.723740 
	C37.868694,208.325500 37.868694,201.251923 37.868694,193.682053 
	C35.777431,194.197403 34.192646,194.470062 32.691254,194.985596 
	C30.443102,195.757523 28.253544,196.700089 26.039070,197.570084 
	C28.055161,198.748505 30.071253,199.926941 32.998478,201.637939 
	C32.998478,204.629745 32.998478,208.907669 32.987888,214.112610 
z"/>
<path fill="#FFFFFF" opacity="1.000000" stroke="none" 
	d="
M119.715240,136.385925 
	C120.591995,140.251938 121.266647,143.745087 122.079666,147.954605 
	C111.244179,150.793808 101.169899,156.185181 89.060616,152.420181 
	C84.846870,151.110046 79.269791,152.755478 74.734428,154.289795 
	C69.663696,156.005219 66.422394,152.276352 62.338177,151.317917 
	C61.417927,151.101959 61.526844,146.923935 60.981392,144.612411 
	C58.862812,135.634232 64.347496,130.865646 70.514664,125.939987 
	C73.920944,123.219406 76.769753,119.395744 78.850723,115.521881 
	C81.546181,110.504150 82.828491,109.982475 88.747284,110.748947 
	C97.215256,111.845528 105.806511,111.990074 114.154877,112.528885 
	C115.916611,120.250221 117.714882,128.131638 119.715240,136.385925 
z"/>
<path fill="#FFFFFF" opacity="1.000000" stroke="none" 
	d="
M130.001251,134.593353 
	C130.572495,133.921509 131.142685,133.655304 131.712860,133.389114 
	C132.780579,136.060791 133.848297,138.732468 135.042755,141.721313 
	C128.404465,142.849182 130.391708,138.042648 130.001251,134.593353 
z"/>
<path fill="#FFFFFF" opacity="1.000000" stroke="none" 
	d="
M664.392456,117.026817 
	C671.372314,115.065521 677.796143,115.934792 683.883789,118.606903 
	C685.335083,119.243927 686.777893,121.673485 686.860168,123.345718 
	C687.195190,130.152451 687.000000,136.985291 687.000000,143.808517 
	C687.000000,152.250000 685.422302,154.136993 677.036621,154.941620 
	C673.738525,155.258057 670.366333,155.215698 667.060913,154.940582 
	C662.630493,154.571854 659.079773,152.428406 658.394714,147.769806 
	C657.182983,139.529755 656.404968,131.153320 659.076904,123.074760 
	C659.836670,120.777580 662.296875,119.042778 664.392456,117.026817 
z"/>
<path fill="#FFFFFF" opacity="1.000000" stroke="none" 
	d="
M751.113953,142.000000 
	C755.225708,142.000000 758.858276,142.000000 762.414795,142.000000 
	C763.825684,150.982132 758.387939,158.068298 749.705322,158.987854 
	C745.268982,159.457703 740.750427,160.717957 737.054810,156.604248 
	C733.562622,152.716949 734.107971,146.697174 738.867859,144.747696 
	C742.548035,143.240479 746.695251,142.873749 751.113953,142.000000 
z"/>
<path fill="#FFFFFF" opacity="1.000000" stroke="none" 
	d="
M1030.975098,124.522141 
	C1030.993774,127.095482 1030.993774,129.235031 1030.993774,131.686432 
	C1022.018555,131.686432 1013.297729,131.686432 1004.559631,131.686432 
	C1005.940308,125.566109 1002.758118,116.095238 1012.349243,115.321777 
	C1024.778809,114.319412 1027.306885,112.810738 1030.975098,124.522141 
z"/>
<path fill="#FCCE01" opacity="1.000000" stroke="none" 
	d="
M64.593620,208.953461 
	C64.929253,205.502365 65.214767,202.333496 64.932465,199.216049 
	C64.632278,195.901001 66.637444,194.449600 69.117363,194.160385 
	C72.896523,193.719681 76.825829,193.637222 80.565247,194.216644 
	C82.188988,194.468246 84.637848,196.653015 84.753708,198.114929 
	C85.241776,204.273453 84.860336,210.494720 85.059029,216.684631 
	C85.181511,220.500809 82.914833,220.992676 80.017570,220.998123 
	C77.186371,221.003448 74.331520,220.765549 71.528816,221.048355 
	C65.545197,221.652084 63.838528,219.868393 64.009247,213.218079 
	C64.043175,211.896576 64.195793,210.578140 64.593620,208.953461 
M78.845856,210.687393 
	C77.087845,210.459152 75.266106,209.847992 73.592438,210.126526 
	C72.305130,210.340775 71.204147,211.674591 70.020317,212.510559 
	C71.070976,213.991028 71.813667,216.213730 73.234070,216.803070 
	C76.563385,218.184448 78.865829,215.852127 78.845856,210.687393 
M74.418945,199.000473 
	C73.281570,199.873444 72.144196,200.746429 71.006821,201.619415 
	C72.222305,202.745514 73.383354,204.689865 74.668076,204.775330 
	C76.045738,204.866974 77.539711,203.210129 78.982925,202.316330 
	C77.751854,201.211304 76.520782,200.106262 74.418945,199.000473 
z"/>
<path fill="#FCCE01" opacity="1.000000" stroke="none" 
	d="
M128.999329,213.115967 
	C128.286133,220.803757 128.082397,220.997757 121.160728,220.999924 
	C119.170197,221.000534 117.179657,221.000259 115.189125,220.999969 
	C108.071632,220.998901 106.223450,218.899445 106.986084,211.944412 
	C107.431473,207.882538 108.009911,203.789169 107.906090,199.725861 
	C107.798096,195.499374 109.982285,194.205582 113.551079,194.019440 
	C115.370827,193.924515 117.199532,193.999863 119.024185,194.000183 
	C127.263229,194.001587 128.386642,195.330414 128.071045,203.457413 
	C127.952179,206.518356 128.665192,209.611588 128.999329,213.115967 
M122.539345,214.918411 
	C124.079430,209.248932 120.059006,209.768433 116.814407,210.129150 
	C115.467964,210.278839 114.278580,211.841156 113.017776,212.761063 
	C114.310013,214.171234 115.373680,216.235184 116.964478,216.791351 
	C118.314537,217.263321 120.273232,215.994308 122.539345,214.918411 
M116.662186,199.002136 
	C113.338806,198.631760 113.347176,201.449509 114.246452,202.728745 
	C115.165848,204.036636 117.961967,205.223282 119.290520,204.728470 
	C120.797203,204.167297 121.586647,201.680450 123.375854,199.000336 
	C120.136688,199.000336 118.846107,199.000336 116.662186,199.002136 
z"/>
<path fill="#FCCE01" opacity="1.000000" stroke="none" 
	d="
M156.379745,220.999634 
	C150.598831,221.060471 150.843094,217.434113 151.207916,212.137360 
	C153.576096,213.401840 155.314880,214.587067 157.231659,215.279922 
	C159.069473,215.944260 161.212097,216.643204 162.984192,216.252869 
	C163.914185,216.048004 165.189667,213.206177 164.777206,212.157928 
	C164.240509,210.793930 162.249512,209.297165 160.763596,209.159256 
	C157.723114,208.877090 154.602036,209.463303 151.259583,209.710770 
	C151.259583,204.718597 151.259583,199.636963 151.259583,194.276031 
	C157.776123,194.276031 164.160828,194.276031 170.773209,194.276031 
	C170.773209,196.737137 170.773209,199.006149 170.773209,202.298737 
	C166.302155,200.945267 162.072220,199.664795 157.253235,198.205994 
	C157.253235,201.011276 157.253235,202.619370 157.253235,205.002457 
	C160.212601,205.002457 163.423004,204.466965 166.313065,205.197983 
	C168.123505,205.655930 170.749390,207.986618 170.788040,209.532562 
	C171.055725,220.244217 172.632050,221.445007 160.329987,221.005539 
	C159.166794,220.963989 158.000824,220.999969 156.379745,220.999634 
z"/>
<path fill="#FCCE01" opacity="1.000000" stroke="none" 
	d="
M32.993183,213.649094 
	C32.998478,208.907669 32.998478,204.629745 32.998478,201.637939 
	C30.071253,199.926941 28.055161,198.748505 26.039068,197.570084 
	C28.253544,196.700089 30.443102,195.757523 32.691254,194.985596 
	C34.192646,194.470062 35.777431,194.197403 37.868694,193.682053 
	C37.868694,201.251923 37.868694,208.325500 37.868694,215.723740 
	C40.996742,216.177155 45.170944,215.416321 43.632683,220.776611 
	C38.278030,220.776611 32.858047,220.776611 27.328939,220.776611 
	C26.695061,218.029877 26.874819,216.134247 30.298647,215.915329 
	C31.229681,215.855774 32.093323,214.742355 32.993183,213.649094 
z"/>
<path fill="#FFFFFF" opacity="1.000000" stroke="none" 
	d="
M78.910629,211.125793 
	C78.865829,215.852127 76.563385,218.184448 73.234070,216.803070 
	C71.813667,216.213730 71.070976,213.991028 70.020317,212.510559 
	C71.204147,211.674591 72.305130,210.340775 73.592438,210.126526 
	C75.266106,209.847992 77.087845,210.459152 78.910629,211.125793 
z"/>
<path fill="#FFFFFF" opacity="1.000000" stroke="none" 
	d="
M74.854324,199.000854 
	C76.520782,200.106262 77.751854,201.211304 78.982925,202.316330 
	C77.539711,203.210129 76.045738,204.866974 74.668076,204.775330 
	C73.383354,204.689865 72.222305,202.745514 71.006821,201.619415 
	C72.144196,200.746429 73.281570,199.873444 74.854324,199.000854 
z"/>
<path fill="#FFFFFF" opacity="1.000000" stroke="none" 
	d="
M122.250977,215.207031 
	C120.273232,215.994308 118.314537,217.263321 116.964478,216.791351 
	C115.373680,216.235184 114.310013,214.171234 113.017776,212.761078 
	C114.278580,211.841156 115.467964,210.278839 116.814407,210.129150 
	C120.059006,209.768433 124.079430,209.248932 122.250977,215.207031 
z"/>
<path fill="#FFFFFF" opacity="1.000000" stroke="none" 
	d="
M117.108856,199.001236 
	C118.846107,199.000336 120.136688,199.000336 123.375854,199.000336 
	C121.586647,201.680450 120.797203,204.167297 119.290520,204.728470 
	C117.961967,205.223282 115.165848,204.036636 114.246452,202.728745 
	C113.347176,201.449509 113.338806,198.631760 117.108856,199.001236 
z"/>
</svg>